<?xml version="1.0" encoding="UTF-8"?>
<svg id="Calque_1" xmlns="http://www.w3.org/2000/svg" viewBox="0 0 15.71 15.71">
  <path d="M13.35.35c-.47-.47-1.24-.47-1.71,0,0,0,0,0,0,0l-3.15,3.15-.65-.65c-.2-.2-.51-.2-.71,0-.2.2-.2.51,0,.71l1.15,1.15L1.15,11.85c-.09.09-.15.22-.15.35v1.79l-.85.85c-.2.2-.2.51,0,.71.2.2.51.2.71,0h0l.85-.85h1.79c.13,0,.26-.05.35-.15l7.15-7.15,1.15,1.15c.2.2.51.2.71,0s.2-.51,0-.71l-.65-.65,3.15-3.15c.47-.47.47-1.24,0-1.71,0,0,0,0,0,0L13.35.35ZM2,12.42l7-7,1.29,1.29-7,7h-1.29v-1.29Z"/>
</svg>